<svg width="1304" height="638" viewBox="0 0 1304 638" fill="none" xmlns="http://www.w3.org/2000/svg">
<rect width="1304" height="638" fill="#1EBFBF"/>
<rect x="413.842" y="120.516" width="227.276" height="469.398" rx="39.0115" transform="rotate(-13.7195 413.842 120.516)" fill="#F9F9F9" stroke="#F9F9F9" stroke-width="3.94926"/>
<mask id="mask0_8_145" style="mask-type:alpha" maskUnits="userSpaceOnUse" x="432" y="85" width="296" height="473">
<rect x="426.293" y="128.229" width="207.296" height="448.865" rx="31.509" transform="rotate(-13.7195 426.293 128.229)" fill="#D9D9D9"/>
</mask>
<g mask="url(#mask0_8_145)">
<rect x="426.163" y="128.26" width="207.296" height="448.865" rx="31.509" transform="rotate(-13.7195 426.163 128.26)" fill="#FA3556"/>
<path d="M605.172 282.792C600.32 279.857 594.937 277.906 589.332 277.051C583.726 276.196 578.006 276.453 572.5 277.808C566.993 279.163 561.808 281.59 557.239 284.949C552.67 288.308 548.808 292.535 545.873 297.387M618.677 260.471C610.894 255.762 602.259 252.632 593.266 251.26C584.274 249.888 575.099 250.301 566.265 252.475C557.432 254.649 549.113 258.542 541.785 263.931C534.456 269.319 528.26 276.099 523.551 283.882M631.716 238.918C621.103 232.497 609.328 228.23 597.065 226.359C584.802 224.488 572.291 225.051 560.246 228.016C548.2 230.98 536.857 236.288 526.863 243.636C516.869 250.985 508.42 260.23 501.999 270.843" stroke="#16191C" stroke-width="13.6366" stroke-linecap="round" stroke-linejoin="round"/>
<path d="M585.149 332.231C576.355 334.395 567.471 329.02 565.306 320.226C563.142 311.431 568.517 302.547 577.311 300.383C586.106 298.218 594.99 303.593 597.154 312.388C599.319 321.182 593.944 330.066 585.149 332.231Z" fill="#16191C"/>
<path d="M517.314 382.529C516.755 380.239 516.753 378.081 517.309 376.056C517.859 374.008 518.894 372.274 520.414 370.853C521.95 369.404 523.841 368.406 526.087 367.857C528.84 367.185 531.374 367.337 533.688 368.312C536.003 369.287 537.797 370.949 539.07 373.298L532.861 374.814C532.162 373.958 531.321 373.381 530.338 373.085C529.378 372.782 528.358 372.763 527.279 373.026C525.54 373.451 524.278 374.401 523.495 375.875C522.712 377.35 522.567 379.1 523.062 381.126C523.556 383.152 524.491 384.639 525.866 385.586C527.24 386.534 528.798 386.796 530.537 386.371C531.616 386.108 532.512 385.62 533.225 384.91C533.961 384.194 534.441 383.295 534.667 382.213L540.877 380.697C540.829 383.368 540.003 385.67 538.398 387.602C536.787 389.512 534.606 390.803 531.853 391.475C529.607 392.023 527.471 392.019 525.446 391.464C523.437 390.881 521.719 389.819 520.293 388.277C518.866 386.735 517.873 384.819 517.314 382.529ZM553.404 386.318C551.599 386.759 549.875 386.772 548.233 386.356C546.614 385.934 545.211 385.11 544.025 383.883C542.861 382.651 542.045 381.077 541.577 379.161C541.115 377.267 541.127 375.502 541.614 373.867C542.096 372.209 542.97 370.817 544.235 369.692C545.5 368.566 547.036 367.783 548.842 367.342C550.647 366.902 552.371 366.889 554.012 367.305C555.654 367.721 557.07 368.553 558.262 369.802C559.448 371.03 560.273 372.59 560.735 374.484C561.197 376.377 561.176 378.156 560.672 379.819C560.185 381.455 559.298 382.838 558.011 383.969C556.745 385.094 555.21 385.877 553.404 386.318ZM552.211 381.43C553.29 381.166 554.107 380.547 554.662 379.571C555.239 378.59 555.348 377.362 554.987 375.887C554.627 374.411 553.976 373.369 553.034 372.759C552.114 372.143 551.114 371.968 550.035 372.231C548.934 372.5 548.117 373.119 547.584 374.089C547.045 375.038 546.959 376.26 547.324 377.758C547.685 379.233 548.314 380.281 549.212 380.902C550.132 381.517 551.132 381.693 552.211 381.43ZM571.342 361.919C573.5 361.392 575.39 361.678 577.011 362.775C578.649 363.845 579.767 365.602 580.363 368.047L582.992 378.815L577.377 380.186L574.934 370.177C574.632 368.944 574.079 368.064 573.274 367.538C572.469 367.011 571.527 366.879 570.448 367.143C569.369 367.406 568.593 367.957 568.121 368.795C567.649 369.634 567.564 370.67 567.865 371.903L570.308 381.911L564.66 383.29L560.16 364.859L565.809 363.48L566.405 365.924C566.779 364.97 567.394 364.143 568.25 363.444C569.1 362.723 570.131 362.215 571.342 361.919ZM592.278 356.808C594.436 356.281 596.326 356.566 597.947 357.664C599.585 358.734 600.703 360.491 601.299 362.936L603.928 373.704L598.313 375.075L595.87 365.066C595.568 363.833 595.015 362.953 594.21 362.426C593.405 361.9 592.463 361.768 591.384 362.031C590.305 362.295 589.529 362.846 589.057 363.684C588.585 364.523 588.5 365.559 588.801 366.792L591.244 376.8L585.596 378.179L581.096 359.748L586.745 358.369L587.341 360.813C587.715 359.859 588.33 359.032 589.186 358.333C590.036 357.612 591.067 357.104 592.278 356.808ZM621.584 359.313C621.713 359.842 621.814 360.401 621.888 360.989L609.105 364.11C609.473 365.234 610.051 366.026 610.84 366.486C611.646 366.92 612.522 367.021 613.469 366.789C614.878 366.445 615.713 365.612 615.973 364.288L621.985 362.82C621.972 364.107 621.677 365.334 621.099 366.502C620.543 367.664 619.726 368.669 618.649 369.515C617.573 370.361 616.286 370.967 614.788 371.332C612.982 371.773 611.281 371.78 609.683 371.354C608.086 370.927 606.716 370.095 605.574 368.857C604.432 367.619 603.627 366.042 603.159 364.127C602.691 362.211 602.668 360.443 603.089 358.824C603.533 357.199 604.365 355.829 605.586 354.714C606.807 353.599 608.332 352.819 610.159 352.373C611.943 351.937 613.62 351.924 615.19 352.334C616.76 352.744 618.1 353.549 619.209 354.748C620.341 355.942 621.132 357.464 621.584 359.313ZM615.44 359.238C615.204 358.269 614.685 357.579 613.885 357.168C613.085 356.757 612.189 356.672 611.198 356.914C610.251 357.145 609.515 357.617 608.988 358.328C608.484 359.035 608.279 359.913 608.372 360.964L615.44 359.238ZM622.192 359.48C621.724 357.564 621.701 355.797 622.122 354.177C622.565 352.552 623.387 351.185 624.586 350.076C625.807 348.961 627.32 348.183 629.126 347.742C631.438 347.178 633.513 347.313 635.35 348.148C637.209 348.977 638.65 350.434 639.672 352.518L633.66 353.985C632.81 352.7 631.658 352.234 630.204 352.589C629.169 352.842 628.443 353.451 628.025 354.416C627.602 355.359 627.574 356.579 627.939 358.077C628.305 359.574 628.895 360.655 629.711 361.319C630.521 361.962 631.443 362.156 632.478 361.904C633.932 361.549 634.74 360.605 634.902 359.072L640.914 357.604C640.956 359.881 640.346 361.826 639.084 363.441C637.821 365.056 636.045 366.143 633.755 366.702C631.949 367.143 630.248 367.15 628.65 366.723C627.075 366.291 625.716 365.456 624.574 364.218C623.453 362.975 622.66 361.396 622.192 359.48ZM653.346 356.564L654.515 361.354L651.642 362.055C649.594 362.555 647.876 362.449 646.489 361.738C645.097 361.005 644.124 359.504 643.57 357.236L641.78 349.903L639.534 350.451L638.389 345.761L640.635 345.213L639.538 340.72L645.186 339.341L646.283 343.834L649.983 342.93L651.128 347.621L647.428 348.524L649.235 355.923C649.369 356.473 649.598 356.838 649.921 357.015C650.245 357.193 650.715 357.207 651.331 357.056L653.346 356.564ZM657.136 334.779C659.492 334.204 661.526 334.361 663.236 335.25C664.969 336.134 666.109 337.698 666.657 339.945C667.163 342.015 666.875 343.8 665.795 345.3C664.731 346.773 663.09 347.792 660.871 348.357L661.311 350.875L656.356 352.084L654.691 345.981L656.673 345.497C658.368 345.083 659.606 344.559 660.384 343.926C661.185 343.287 661.451 342.417 661.182 341.316C660.994 340.545 660.637 339.991 660.111 339.653C659.585 339.314 658.948 339.237 658.199 339.42C657.406 339.613 656.846 339.995 656.519 340.565C656.186 341.113 656.113 341.772 656.302 342.543L650.984 343.841C650.612 342.509 650.591 341.23 650.922 340.006C651.276 338.776 651.971 337.708 653.01 336.801C654.065 335.867 655.441 335.193 657.136 334.779ZM660.996 360.051C660.005 360.293 659.121 360.206 658.342 359.789C657.58 359.345 657.095 358.694 656.885 357.835C656.67 356.954 656.798 356.141 657.27 355.396C657.763 354.646 658.505 354.15 659.496 353.908C660.465 353.671 661.33 353.775 662.092 354.219C662.876 354.658 663.375 355.317 663.59 356.198C663.8 357.057 663.658 357.862 663.165 358.612C662.688 359.335 661.965 359.815 660.996 360.051Z" fill="#16191C"/>
</g>
<path d="M470.467 108.724L578.844 82.2661L581.356 92.5588C583.49 101.298 578.135 110.113 569.395 112.247L492.668 130.978C483.928 133.112 475.114 127.757 472.98 119.017L470.467 108.724Z" fill="#F9F9F9"/>
<rect x="99" y="120.313" width="144.646" height="42.2942" rx="5.40064" fill="#16191C"/>
<path d="M133.42 139.542H131.179L127.43 133.867V139.542H125.189V130.341H127.43L131.179 136.043V130.341H133.42V139.542ZM142.083 137.917H138.649L138.099 139.542H135.753L139.082 130.341H141.677L145.006 139.542H142.634L142.083 137.917ZM141.507 136.187L140.366 132.818L139.239 136.187H141.507ZM157.75 130.341V139.542H155.509V134.024L153.451 139.542H151.642L149.571 134.011V139.542H147.33V130.341H149.978L152.56 136.711L155.115 130.341H157.75ZM162.914 132.137V133.998H165.915V135.728H162.914V137.747H166.308V139.542H160.672V130.341H166.308V132.137H162.914Z" fill="#F9F9F9"/>
<rect x="99" y="147.381" width="280.833" height="74.8374" rx="5.40064" fill="#F9F9F9"/>
<path d="M133.833 195.018C132.32 195.018 130.965 194.772 129.767 194.281C128.568 193.79 127.606 193.063 126.879 192.101C126.172 191.138 125.799 189.98 125.76 188.624H131.122C131.2 189.39 131.466 189.98 131.917 190.392C132.369 190.785 132.958 190.981 133.685 190.981C134.432 190.981 135.021 190.814 135.453 190.48C135.885 190.127 136.101 189.646 136.101 189.037C136.101 188.526 135.924 188.104 135.571 187.77C135.237 187.436 134.815 187.161 134.304 186.945C133.813 186.729 133.106 186.483 132.183 186.208C130.847 185.796 129.757 185.383 128.912 184.971C128.068 184.558 127.341 183.949 126.732 183.144C126.123 182.339 125.818 181.288 125.818 179.991C125.818 178.067 126.516 176.564 127.91 175.484C129.305 174.384 131.122 173.834 133.361 173.834C135.64 173.834 137.476 174.384 138.871 175.484C140.265 176.564 141.012 178.076 141.11 180.021H135.659C135.62 179.353 135.374 178.833 134.923 178.459C134.471 178.067 133.891 177.87 133.184 177.87C132.575 177.87 132.084 178.037 131.711 178.371C131.338 178.685 131.151 179.147 131.151 179.756C131.151 180.424 131.466 180.944 132.094 181.317C132.723 181.691 133.705 182.093 135.041 182.525C136.376 182.977 137.457 183.409 138.282 183.822C139.126 184.234 139.853 184.833 140.462 185.619C141.071 186.405 141.375 187.416 141.375 188.654C141.375 189.832 141.071 190.903 140.462 191.865C139.873 192.828 139.008 193.594 137.869 194.163C136.73 194.733 135.384 195.018 133.833 195.018ZM152.46 190.539V194.812H149.897C148.07 194.812 146.646 194.37 145.625 193.486C144.603 192.582 144.093 191.119 144.093 189.096V182.555H142.089V178.371H144.093V174.364H149.131V178.371H152.431V182.555H149.131V189.155C149.131 189.646 149.249 189.999 149.485 190.215C149.72 190.431 150.113 190.539 150.663 190.539H152.46ZM159.126 181.111C159.716 180.208 160.452 179.5 161.336 178.99C162.22 178.459 163.202 178.194 164.283 178.194V183.527H162.898C161.641 183.527 160.698 183.802 160.069 184.352C159.441 184.882 159.126 185.825 159.126 187.181V194.812H154.088V178.371H159.126V181.111ZM164.51 186.562C164.51 184.873 164.825 183.39 165.453 182.113C166.101 180.836 166.976 179.854 168.075 179.166C169.175 178.479 170.403 178.135 171.758 178.135C172.917 178.135 173.929 178.371 174.793 178.842C175.677 179.314 176.355 179.933 176.826 180.699V178.371H181.864V194.812H176.826V192.484C176.335 193.25 175.648 193.869 174.764 194.34C173.899 194.812 172.888 195.047 171.729 195.047C170.393 195.047 169.175 194.704 168.075 194.016C166.976 193.309 166.101 192.317 165.453 191.04C164.825 189.744 164.51 188.251 164.51 186.562ZM176.826 186.591C176.826 185.334 176.473 184.342 175.765 183.615C175.078 182.889 174.233 182.525 173.232 182.525C172.23 182.525 171.375 182.889 170.668 183.615C169.981 184.323 169.637 185.305 169.637 186.562C169.637 187.819 169.981 188.821 170.668 189.567C171.375 190.294 172.23 190.657 173.232 190.657C174.233 190.657 175.078 190.294 175.765 189.567C176.473 188.84 176.826 187.848 176.826 186.591ZM207.931 178.371L203.482 194.812H197.913L195.321 184.146L192.639 194.812H187.1L182.622 178.371H187.66L189.988 190.127L192.757 178.371H198.09L200.889 190.068L203.187 178.371H207.931ZM213.712 180.699C214.183 179.933 214.861 179.314 215.745 178.842C216.629 178.371 217.64 178.135 218.78 178.135C220.135 178.135 221.363 178.479 222.463 179.166C223.563 179.854 224.427 180.836 225.055 182.113C225.704 183.39 226.028 184.873 226.028 186.562C226.028 188.251 225.704 189.744 225.055 191.04C224.427 192.317 223.563 193.309 222.463 194.016C221.363 194.704 220.135 195.047 218.78 195.047C217.621 195.047 216.609 194.821 215.745 194.37C214.881 193.898 214.203 193.279 213.712 192.513V194.812H208.674V173.009H213.712V180.699ZM220.901 186.562C220.901 185.305 220.548 184.323 219.84 183.615C219.153 182.889 218.298 182.525 217.277 182.525C216.275 182.525 215.421 182.889 214.714 183.615C214.026 184.342 213.683 185.334 213.683 186.591C213.683 187.848 214.026 188.84 214.714 189.567C215.421 190.294 216.275 190.657 217.277 190.657C218.279 190.657 219.133 190.294 219.84 189.567C220.548 188.821 220.901 187.819 220.901 186.562ZM243.727 178.371V194.812H238.688V192.572C238.178 193.299 237.48 193.888 236.597 194.34C235.732 194.772 234.77 194.988 233.709 194.988C232.452 194.988 231.342 194.713 230.38 194.163C229.417 193.594 228.671 192.779 228.141 191.718C227.61 190.657 227.345 189.41 227.345 187.976V178.371H232.354V187.298C232.354 188.398 232.639 189.253 233.208 189.862C233.778 190.471 234.544 190.775 235.506 190.775C236.489 190.775 237.264 190.471 237.834 189.862C238.404 189.253 238.688 188.398 238.688 187.298V178.371H243.727ZM245.165 186.591C245.165 184.882 245.509 183.39 246.197 182.113C246.904 180.836 247.876 179.854 249.113 179.166C250.371 178.479 251.804 178.135 253.415 178.135C255.478 178.135 257.196 178.675 258.571 179.756C259.966 180.836 260.879 182.358 261.311 184.323H255.949C255.497 183.065 254.623 182.437 253.327 182.437C252.404 182.437 251.667 182.8 251.117 183.527C250.567 184.234 250.292 185.256 250.292 186.591C250.292 187.927 250.567 188.958 251.117 189.685C251.667 190.392 252.404 190.746 253.327 190.746C254.623 190.746 255.497 190.117 255.949 188.86H261.311C260.879 190.785 259.966 192.297 258.571 193.397C257.177 194.497 255.458 195.047 253.415 195.047C251.804 195.047 250.371 194.704 249.113 194.016C247.876 193.329 246.904 192.346 246.197 191.07C245.509 189.793 245.165 188.3 245.165 186.591ZM272.875 194.812L267.866 187.917V194.812H262.828V173.009H267.866V185.059L272.845 178.371H279.062L272.227 186.621L279.121 194.812H272.875ZM286.551 195.047C285.117 195.047 283.84 194.802 282.72 194.311C281.601 193.82 280.717 193.152 280.069 192.307C279.42 191.443 279.057 190.48 278.979 189.42H283.958C284.017 189.989 284.282 190.451 284.753 190.805C285.225 191.158 285.804 191.335 286.492 191.335C287.12 191.335 287.601 191.217 287.935 190.981C288.289 190.726 288.466 190.402 288.466 190.009C288.466 189.538 288.22 189.194 287.729 188.978C287.238 188.742 286.443 188.487 285.343 188.212C284.164 187.937 283.182 187.652 282.396 187.357C281.611 187.043 280.933 186.562 280.363 185.914C279.794 185.246 279.509 184.352 279.509 183.232C279.509 182.29 279.764 181.435 280.275 180.669C280.805 179.883 281.571 179.265 282.573 178.813C283.594 178.361 284.802 178.135 286.197 178.135C288.259 178.135 289.88 178.646 291.059 179.667C292.257 180.689 292.944 182.044 293.121 183.733H288.466C288.387 183.164 288.132 182.712 287.7 182.378C287.287 182.044 286.737 181.877 286.05 181.877C285.46 181.877 285.009 181.995 284.694 182.231C284.38 182.447 284.223 182.751 284.223 183.144C284.223 183.615 284.469 183.969 284.96 184.205C285.47 184.44 286.256 184.676 287.317 184.912C288.534 185.226 289.526 185.54 290.292 185.855C291.059 186.149 291.726 186.64 292.296 187.328C292.885 187.996 293.19 188.899 293.209 190.038C293.209 191.001 292.934 191.865 292.384 192.631C291.854 193.378 291.078 193.967 290.057 194.399C289.055 194.831 287.886 195.047 286.551 195.047ZM323.575 174.128L318.183 194.812H312.084L308.784 181.199L305.366 194.812H299.268L294.023 174.128H299.415L302.391 189.184L306.074 174.128H311.613L315.148 189.184L318.154 174.128H323.575ZM329.961 174.128V194.812H324.923V174.128H329.961ZM345.899 174.128V178.165H337.472V182.525H343.777V186.444H337.472V194.812H332.434V174.128H345.899ZM352.406 174.128V194.812H347.368V174.128H352.406Z" fill="black"/>
<path d="M417.051 201.518L378.142 177.833L370.529 201.518H417.051Z" fill="#F9F9F9"/>
<rect x="123.465" y="441.662" width="280.833" height="74.8374" rx="5.40064" fill="#F9F9F9"/>
<rect x="136.154" y="451.812" width="115.04" height="53.2907" rx="5.0753" fill="#FA3556"/>
<path d="M160.878 472.475C162.764 472.475 164.277 473.104 165.416 474.361C166.555 475.598 167.125 477.307 167.125 479.487V489.092H162.116V480.165C162.116 479.065 161.831 478.211 161.261 477.602C160.692 476.993 159.926 476.688 158.963 476.688C158.001 476.688 157.235 476.993 156.665 477.602C156.096 478.211 155.811 479.065 155.811 480.165V489.092H150.772V467.289H155.811V474.861C156.321 474.135 157.019 473.555 157.903 473.123C158.787 472.691 159.778 472.475 160.878 472.475ZM178.61 484.82V489.092H176.047C174.22 489.092 172.796 488.65 171.775 487.766C170.753 486.863 170.243 485.4 170.243 483.376V476.836H168.239V472.652H170.243V468.645H175.281V472.652H178.581V476.836H175.281V483.435C175.281 483.926 175.399 484.28 175.635 484.496C175.87 484.712 176.263 484.82 176.813 484.82H178.61ZM189.401 484.82V489.092H186.838C185.011 489.092 183.587 488.65 182.566 487.766C181.544 486.863 181.034 485.4 181.034 483.376V476.836H179.03V472.652H181.034V468.645H186.072V472.652H189.372V476.836H186.072V483.435C186.072 483.926 186.19 484.28 186.426 484.496C186.661 484.712 187.054 484.82 187.604 484.82H189.401ZM196.067 474.979C196.558 474.213 197.236 473.595 198.1 473.123C198.965 472.652 199.976 472.416 201.135 472.416C202.49 472.416 203.718 472.76 204.818 473.447C205.918 474.135 206.782 475.117 207.411 476.394C208.059 477.67 208.383 479.153 208.383 480.843C208.383 482.532 208.059 484.025 207.411 485.321C206.782 486.598 205.918 487.59 204.818 488.297C203.718 488.984 202.49 489.328 201.135 489.328C199.996 489.328 198.984 489.092 198.1 488.621C197.236 488.149 196.558 487.541 196.067 486.794V496.93H191.029V472.652H196.067V474.979ZM203.256 480.843C203.256 479.585 202.903 478.603 202.196 477.896C201.508 477.169 200.654 476.806 199.632 476.806C198.631 476.806 197.776 477.169 197.069 477.896C196.382 478.623 196.038 479.615 196.038 480.872C196.038 482.129 196.382 483.121 197.069 483.848C197.776 484.575 198.631 484.938 199.632 484.938C200.634 484.938 201.489 484.575 202.196 483.848C202.903 483.101 203.256 482.1 203.256 480.843ZM212.205 489.328C211.321 489.328 210.594 489.073 210.025 488.562C209.475 488.032 209.2 487.383 209.2 486.617C209.2 485.832 209.475 485.174 210.025 484.643C210.594 484.113 211.321 483.848 212.205 483.848C213.069 483.848 213.776 484.113 214.326 484.643C214.896 485.174 215.181 485.832 215.181 486.617C215.181 487.383 214.896 488.032 214.326 488.562C213.776 489.073 213.069 489.328 212.205 489.328ZM212.205 477.336C211.321 477.336 210.594 477.081 210.025 476.57C209.475 476.04 209.2 475.392 209.2 474.626C209.2 473.84 209.475 473.182 210.025 472.652C210.594 472.121 211.321 471.856 212.205 471.856C213.069 471.856 213.776 472.121 214.326 472.652C214.896 473.182 215.181 473.84 215.181 474.626C215.181 475.392 214.896 476.04 214.326 476.57C213.776 477.081 213.069 477.336 212.205 477.336ZM228.268 461.102L220.372 494.602H215.51L223.406 461.102H228.268ZM240.44 461.102L232.544 494.602H227.682L235.578 461.102H240.44Z" fill="black"/>
<path d="M470.686 442.603L402.607 488.608L394.994 464.924L470.686 442.603Z" fill="#F9F9F9"/>
<rect x="111.233" y="271.345" width="144.646" height="42.2942" rx="5.40064" fill="#16191C"/>
<path d="M144.434 284.335C144.434 284.868 144.312 285.358 144.067 285.803C143.822 286.24 143.447 286.594 142.94 286.865C142.433 287.136 141.804 287.271 141.052 287.271H139.663V290.574H137.422V281.373H141.052C141.786 281.373 142.407 281.5 142.914 281.753C143.42 282.007 143.801 282.356 144.054 282.802C144.307 283.248 144.434 283.759 144.434 284.335ZM140.882 285.489C141.31 285.489 141.629 285.388 141.839 285.187C142.049 284.986 142.153 284.702 142.153 284.335C142.153 283.968 142.049 283.684 141.839 283.483C141.629 283.282 141.31 283.182 140.882 283.182H139.663V285.489H140.882ZM152.639 288.949H149.205L148.655 290.574H146.309L149.638 281.373H152.233L155.562 290.574H153.19L152.639 288.949ZM152.063 287.219L150.922 283.85L149.795 287.219H152.063ZM161.215 290.666C160.542 290.666 159.939 290.557 159.406 290.338C158.873 290.12 158.445 289.797 158.122 289.368C157.807 288.94 157.641 288.425 157.624 287.822H160.009C160.044 288.163 160.162 288.425 160.363 288.608C160.564 288.783 160.826 288.87 161.15 288.87C161.482 288.87 161.744 288.796 161.936 288.648C162.128 288.49 162.224 288.276 162.224 288.005C162.224 287.778 162.146 287.59 161.988 287.442C161.84 287.293 161.652 287.171 161.425 287.075C161.206 286.979 160.892 286.869 160.481 286.747C159.887 286.564 159.402 286.38 159.026 286.197C158.651 286.013 158.327 285.742 158.056 285.384C157.785 285.026 157.65 284.558 157.65 283.982C157.65 283.125 157.96 282.457 158.581 281.976C159.201 281.487 160.009 281.242 161.005 281.242C162.019 281.242 162.836 281.487 163.456 281.976C164.077 282.457 164.409 283.13 164.453 283.995H162.028C162.01 283.698 161.901 283.466 161.7 283.3C161.499 283.125 161.241 283.038 160.927 283.038C160.656 283.038 160.437 283.112 160.271 283.261C160.105 283.4 160.022 283.606 160.022 283.877C160.022 284.174 160.162 284.405 160.442 284.571C160.721 284.737 161.158 284.916 161.752 285.109C162.347 285.31 162.827 285.502 163.194 285.685C163.57 285.869 163.893 286.135 164.164 286.485C164.435 286.834 164.57 287.284 164.57 287.835C164.57 288.359 164.435 288.835 164.164 289.264C163.902 289.692 163.518 290.033 163.011 290.286C162.504 290.539 161.905 290.666 161.215 290.666ZM170.59 290.666C169.917 290.666 169.314 290.557 168.781 290.338C168.248 290.12 167.82 289.797 167.496 289.368C167.182 288.94 167.016 288.425 166.998 287.822H169.384C169.419 288.163 169.537 288.425 169.738 288.608C169.939 288.783 170.201 288.87 170.524 288.87C170.856 288.87 171.118 288.796 171.31 288.648C171.503 288.49 171.599 288.276 171.599 288.005C171.599 287.778 171.52 287.59 171.363 287.442C171.214 287.293 171.027 287.171 170.799 287.075C170.581 286.979 170.266 286.869 169.856 286.747C169.261 286.564 168.776 286.38 168.401 286.197C168.025 286.013 167.702 285.742 167.431 285.384C167.16 285.026 167.025 284.558 167.025 283.982C167.025 283.125 167.335 282.457 167.955 281.976C168.576 281.487 169.384 281.242 170.38 281.242C171.394 281.242 172.21 281.487 172.831 281.976C173.451 282.457 173.783 283.13 173.827 283.995H171.402C171.385 283.698 171.276 283.466 171.075 283.3C170.874 283.125 170.616 283.038 170.301 283.038C170.03 283.038 169.812 283.112 169.646 283.261C169.48 283.4 169.397 283.606 169.397 283.877C169.397 284.174 169.537 284.405 169.816 284.571C170.096 284.737 170.533 284.916 171.127 285.109C171.721 285.31 172.202 285.502 172.569 285.685C172.944 285.869 173.268 286.135 173.539 286.485C173.81 286.834 173.945 287.284 173.945 287.835C173.945 288.359 173.81 288.835 173.539 289.264C173.277 289.692 172.892 290.033 172.385 290.286C171.878 290.539 171.28 290.666 170.59 290.666Z" fill="#F9F9F9"/>
<rect x="111.233" y="297.567" width="280.833" height="74.8374" rx="5.40064" fill="#F9F9F9"/>
<circle cx="150.989" cy="335.632" r="8.45883" fill="#16191C"/>
<circle cx="183.133" cy="335.632" r="8.45883" fill="#16191C"/>
<circle cx="215.276" cy="335.632" r="8.45883" fill="#16191C"/>
<circle cx="247.42" cy="335.632" r="8.45883" fill="#16191C"/>
<circle cx="279.564" cy="335.632" r="8.45883" fill="#16191C"/>
<circle cx="311.707" cy="335.632" r="8.45883" fill="#16191C"/>
<path d="M449.586 335.632L390.374 322.944L382.761 346.629L449.586 335.632Z" fill="#F9F9F9"/>
<path d="M1021.45 406.941C1003.91 392.725 965.634 338.586 952.139 293.777C946.707 275.741 937.446 204.463 933.559 154.197C932.85 145.024 929.797 137.948 926.041 135.289C917.122 128.973 905.536 136.874 903.721 148.718C899.696 174.984 903.416 211.897 903.305 266.409C893.1 223.941 887.607 152.906 885.586 126.762C883.059 94.0826 854.151 100.643 851.315 119.896C849.045 135.298 851.203 226.604 852.566 270.332C840.938 237.753 822.199 173.978 813.979 144.411C812.569 139.341 811.469 135.276 810.766 132.548C808.023 121.887 802.39 116.651 796.458 115.328C786.343 113.073 773.769 123.989 775.046 140.501C776.323 157.013 787.051 217.434 805.071 282.656C785.962 251.836 741.948 189.085 735.699 179.879C727.888 168.371 708.902 168.974 710.831 193.914C712.759 218.853 741.826 281.491 783.594 340.551C825.362 399.61 815.06 445.394 800.839 451.684C786.618 457.975 738.782 443.506 703.128 452.319C686.766 456.363 685.455 466.561 687.608 473.417C690.147 481.501 699.083 487.897 714.721 490.354C718.776 490.991 723.182 491.755 727.873 492.624C782.967 502.83 877.49 527.487 906.388 530.036C919.986 531.235 960.692 557.382 1003.97 587.972C1075.64 551.66 1099.07 472.028 1101.83 436.751C1062.09 424.263 1028.35 412.536 1021.45 406.941Z" fill="#F9F9F9"/>
<path fill-rule="evenodd" clip-rule="evenodd" d="M1088.26 432.44C1071.29 440.739 1054.31 452.27 1036.81 464.155C1009.8 482.505 981.548 501.696 950.152 511.123C911.57 522.708 883.237 523.914 856.161 520.743C877.969 525.513 896.232 529.14 906.388 530.036C919.986 531.235 960.692 557.382 1003.97 587.972C1075.64 551.66 1099.07 472.028 1101.83 436.751C1097.21 435.301 1092.68 433.861 1088.26 432.44Z" fill="#16191C"/>
<path d="M805.071 282.655C811.8 291.362 826.371 309.73 830.818 313.539M852.565 270.33C855.81 278.731 864.419 300.559 867.859 300.293M903.305 266.407C906.816 278.247 910.527 292.668 913.173 293.328M727.873 492.622C730.456 488.732 734.271 479.151 728.87 471.955C723.469 464.76 709.99 462.745 703.926 462.637M784.634 130.241C785.364 135.952 787.42 148.367 789.803 152.335C792.388 156.639 810.089 152.61 813.513 147.041" stroke="#16191C" stroke-width="1.88196" stroke-linecap="round"/>
<ellipse cx="130.502" cy="96.371" rx="130.502" ry="96.371" transform="matrix(-0.94284 -0.333247 -0.333247 0.94284 1267.49 161.66)" fill="#16191C"/>
<path d="M1009.07 336.787C1083.14 333.729 1118.45 294.005 1126.85 274.525C1105.31 256.866 1061.99 232.143 1061.11 274.525C1060.24 316.907 1026.05 333.692 1009.07 336.787Z" fill="#16191C"/>
<path d="M1038.1 223.355L1073.81 148.077L1079.83 245.378L1119.17 162.492M1204.65 204.936L1163.71 260.994M1158.9 187.318C1127.19 173.703 1082.64 239.372 1119.17 254.587C1155.69 269.803 1193.81 203.735 1158.9 187.318Z" stroke="#F9F9F9" stroke-width="4.70489" stroke-linecap="round" stroke-linejoin="round"/>
<circle cx="1157.13" cy="269.933" r="4.2344" fill="#F9F9F9"/>
</svg>
